<?xml version="1.0" encoding="UTF-8" standalone="no"?>

<svg
  viewBox="-5 -5 208 145"
  version="1.1"
  xmlns="http://www.w3.org/2000/svg"
  xmlns:svg="http://www.w3.org/2000/svg"
>
  <defs>
    <path id="badge" d="M 55,23.5 V 113 L 99.5,125 144,113 V 23.5 l -44.5,-12 z" />
    <g id="left-wing">
      <use href="#left-wing-bottom" stroke="white" stroke-width="5" />
      <path id="left-wing-bottom" d="m 36.5,105 16.5,6 v 3.5 l 19.5,5 L 42,136 Z" />
      <use href="#left-wing-middle" stroke="white" stroke-width="5" />
      <path id="left-wing-middle" d="M 29.2,44.8 0,90 53,109.4 V 77 Z" />
      <use href="#left-wing-top" stroke="white" stroke-width="5" />
      <path id="left-wing-top" d="M 13.5,20.5 53,74 V 22 L 74,16.5 62,0 Z" />
    </g>
  </defs>
  <use href="#left-wing" style="fill: #0a1c39" />
  <use href="#left-wing" style="fill: #0a1c39" transform="translate(199,0) scale(-1,1)" />
  <use href="#badge" stroke="white" stroke-width="5" />
  <use href="#badge" style="fill: #0a1c39" />
  <path id="mouth" style="fill: #ffffff"
    d="m 104.5,76 6.5,14 8.5,-5.5 z M 114,65.5 125,72.483614 103.3,72.5 Z M 93,58 104.5,65.5 96,71 l 10,22 -14.5,9 -15,-33.5 z"
  />
  <path id="crete-light" style="fill: #ef7276"
    d="m 89.2,46 5,-10.5 13.3,9.9 7,-4.6 5.5,15.3 -10.16916,6.40933 L 93.5,51.9 84.3,57.8 79.5,47 Z"
  />
  <path id="crete-dark" style="fill: #d63547"
    d="m 89.2,46 4.3,5.9 0.7,-16.4 13.3,9.9 L 120,56.1 109.83084,62.50933 107.5,45.4 93.5,51.9 79.5,47 Z"
  />
</svg>
